<?xml version="1.0" encoding="UTF-8" standalone="no"?>
<!-- Created with Inkscape (http://www.inkscape.org/) -->

<svg
   width="121.58886mm"
   height="35.665298mm"
   viewBox="0 0 121.58886 35.665298"
   version="1.1"
   id="svg1"
   xml:space="preserve"
   xmlns="http://www.w3.org/2000/svg"
   xmlns:svg="http://www.w3.org/2000/svg"><defs
     id="defs1" /><g
     id="layer1"
     transform="translate(-50.460137,-130.86073)"><g
       style="opacity:1;fill:none;fill-rule:nonzero;stroke:none;stroke-width:0;stroke-linecap:butt;stroke-linejoin:miter;stroke-miterlimit:10;stroke-dasharray:none"
       transform="matrix(0.51046582,0,0,0.51046582,126.10738,125.72246)"
       id="g2">
	<path
   d="m 89.968,11.869 c 0.168,-0.812 -0.354,-1.604 -1.166,-1.772 -0.813,-0.165 -1.604,0.354 -1.771,1.166 l -1.143,5.546 c -6.851,-4.345 -14.352,-4.262 -21.173,0.271 -5.896,3.92 -12.393,3.919 -18.289,0 -6.969,-4.629 -14.642,-4.63 -21.61,0 -5.896,3.918 -12.392,3.918 -18.289,0 C 5.774,16.58 5.001,16.126 4.229,15.734 4.105,15.671 3.979,15.617 3.855,15.557 L 2.97,11.263 C 2.803,10.451 2.009,9.93 1.198,10.097 0.386,10.264 -0.135,11.057 0.032,11.869 L 11.75,68.737 c 0.144,0.697 0.757,1.197 1.469,1.197 h 63.564 c 0.712,0 1.325,-0.5 1.469,-1.197 L 88.387,19.551 c 0,-10e-4 0.001,-0.003 0.001,-0.004 z M 75.559,66.934 H 14.441 L 4.656,19.447 c 0.07,0.045 0.141,0.086 0.211,0.132 6.969,4.63 14.643,4.629 21.61,0 5.898,-3.919 12.393,-3.918 18.289,0 3.484,2.314 7.145,3.472 10.805,3.472 3.66,0 7.321,-1.158 10.805,-3.472 5.897,-3.918 12.393,-3.918 18.29,0 l 0.573,0.381 z"
   style="opacity:1;fill:#000000;fill-rule:nonzero;stroke:none;stroke-width:1;stroke-linecap:butt;stroke-linejoin:miter;stroke-miterlimit:10;stroke-dasharray:none"
   stroke-linecap="round"
   id="path1" />
	<path
   d="M 76.782,76.934 H 13.218 c -0.829,0 -1.5,0.672 -1.5,1.5 0,0.828 0.671,1.5 1.5,1.5 h 63.564 c 0.828,0 1.5,-0.672 1.5,-1.5 0,-0.828 -0.672,-1.5 -1.5,-1.5 z"
   style="opacity:1;fill:#000000;fill-rule:nonzero;stroke:none;stroke-width:1;stroke-linecap:butt;stroke-linejoin:miter;stroke-miterlimit:10;stroke-dasharray:none"
   stroke-linecap="round"
   id="path2" />
</g><path
       style="font-weight:300;font-size:36.1716px;font-family:Rubik;-inkscape-font-specification:'Rubik Light';stroke-width:0.188393"
       d="m 59.720074,160.68908 q -2.9299,0 -4.991681,-0.94046 -2.025609,-0.94047 -3.110758,-2.4235 -1.085148,-1.48304 -1.157491,-3.14693 0,-0.28937 0.21703,-0.5064 0.217029,-0.21703 0.542574,-0.21703 h 0.723432 q 0.361716,0 0.542574,0.21703 0.21703,0.21703 0.253201,0.5064 0.144687,1.0128 0.90429,2.02561 0.759604,0.97663 2.242639,1.66389 1.483036,0.65109 3.83419,0.65109 3.544817,0 5.172539,-1.266 1.627722,-1.30218 1.627722,-3.47248 0,-1.44686 -0.868119,-2.31498 -0.831946,-0.90429 -2.568183,-1.59155 -1.736237,-0.72343 -4.449107,-1.59155 -2.568184,-0.83195 -4.232077,-1.70007 -1.663894,-0.90429 -2.459669,-2.17029 -0.759604,-1.26601 -0.759604,-3.25545 0,-1.84475 0.976634,-3.29161 0.976633,-1.48304 2.821384,-2.35116 1.880924,-0.86811 4.557622,-0.86811 2.134124,0 3.725675,0.57874 1.59155,0.57875 2.640527,1.55538 1.048976,0.94046 1.59155,2.06178 0.542574,1.08515 0.578746,2.13413 0,0.2532 -0.180858,0.5064 -0.180858,0.21703 -0.578746,0.21703 h -0.723432 q -0.180858,0 -0.470231,-0.14469 -0.253201,-0.14468 -0.325544,-0.57874 -0.21703,-1.80858 -1.917095,-2.96608 -1.663894,-1.19366 -4.340592,-1.19366 -2.676698,0 -4.376764,1.04898 -1.700065,1.04897 -1.700065,3.29161 0,1.44687 0.759604,2.38733 0.759603,0.90429 2.387325,1.62772 1.627722,0.68726 4.195906,1.51921 2.71287,0.86812 4.485278,1.73624 1.772409,0.86811 2.640527,2.13412 0.868119,1.22983 0.868119,3.21927 0,2.20647 -1.12132,3.76185 -1.085148,1.51921 -3.110758,2.35115 -2.025609,0.79578 -4.846994,0.79578 z m 22.860436,0 q -3.002243,0 -5.100196,-1.04898 -2.097953,-1.08515 -3.219272,-3.29161 -1.12132,-2.24264 -1.229835,-5.64277 -0.03617,-1.62773 -0.03617,-3.03842 0,-1.41069 0.03617,-3.03841 0.108515,-3.36396 1.302178,-5.57043 1.193663,-2.24264 3.291615,-3.32779 2.134125,-1.08514 4.95551,-1.08514 2.821384,0 4.919337,1.08514 2.134125,1.08515 3.327787,3.32779 1.229835,2.20647 1.302178,5.57043 0.07234,1.62772 0.07234,3.03841 0,1.41069 -0.07234,3.03842 -0.07234,3.40013 -1.229834,5.64277 -1.12132,2.20646 -3.219273,3.29161 -2.097953,1.04898 -5.100195,1.04898 z m 0,-2.1703 q 3.110757,0 5.100195,-1.88092 2.02561,-1.88092 2.170296,-6.113 0.07234,-1.62772 0.07234,-2.85756 0,-1.22983 -0.07234,-2.85755 -0.07234,-2.82139 -1.048976,-4.5938 -0.940462,-1.77241 -2.568184,-2.56818 -1.59155,-0.83195 -3.653331,-0.83195 -2.02561,0 -3.653332,0.83195 -1.59155,0.79577 -2.568184,2.56818 -0.940461,1.77241 -1.048976,4.5938 -0.03617,1.62772 -0.03617,2.85755 0,1.22984 0.03617,2.85756 0.144686,4.23208 2.170296,6.113 2.02561,1.88092 5.100196,1.88092 z m 22.96899,2.1703 q -2.9299,0 -4.99168,-0.94046 -2.025611,-0.94047 -3.110759,-2.4235 -1.085148,-1.48304 -1.157491,-3.14693 0,-0.28937 0.21703,-0.5064 0.217029,-0.21703 0.542574,-0.21703 h 0.723432 q 0.361716,0 0.542574,0.21703 0.217029,0.21703 0.253201,0.5064 0.144686,1.0128 0.90429,2.02561 0.759599,0.97663 2.242639,1.66389 1.48304,0.65109 3.83419,0.65109 3.54482,0 5.17254,-1.266 1.62772,-1.30218 1.62772,-3.47248 0,-1.44686 -0.86812,-2.31498 -0.83194,-0.90429 -2.56818,-1.59155 -1.73624,-0.72343 -4.44911,-1.59155 -2.56818,-0.83195 -4.23208,-1.70007 -1.663889,-0.90429 -2.459664,-2.17029 -0.759604,-1.26601 -0.759604,-3.25545 0,-1.84475 0.976633,-3.29161 0.976634,-1.48304 2.821385,-2.35116 1.88092,-0.86811 4.55762,-0.86811 2.13413,0 3.72568,0.57874 1.59155,0.57875 2.64052,1.55538 1.04898,0.94046 1.59155,2.06178 0.54258,1.08515 0.57875,2.13413 0,0.2532 -0.18086,0.5064 -0.18086,0.21703 -0.57874,0.21703 h -0.72344 q -0.18085,0 -0.47023,-0.14469 -0.2532,-0.14468 -0.32554,-0.57874 -0.21703,-1.80858 -1.9171,-2.96608 -1.66389,-1.19366 -4.34059,-1.19366 -2.6767,0 -4.37676,1.04898 -1.700067,1.04897 -1.700067,3.29161 0,1.44687 0.759607,2.38733 0.7596,0.90429 2.38732,1.62772 1.62772,0.68726 4.19591,1.51921 2.71287,0.86812 4.48528,1.73624 1.7724,0.86811 2.64052,2.13412 0.86812,1.22983 0.86812,3.21927 0,2.20647 -1.12132,3.76185 -1.08515,1.51921 -3.11076,2.35115 -2.02561,0.79578 -4.84699,0.79578 z m 15.08354,-0.36172 q -0.36172,0 -0.57875,-0.21703 -0.21703,-0.21703 -0.21703,-0.57874 v -23.72857 q 0,-0.36172 0.21703,-0.57875 0.21703,-0.21703 0.57875,-0.21703 h 0.68726 q 0.36172,0 0.57875,0.21703 0.21703,0.21703 0.21703,0.57875 v 23.72857 q 0,0.36171 -0.21703,0.57874 -0.21703,0.21703 -0.57875,0.21703 z"
       id="text2"
       aria-label="SOSI" /><path
       style="font-weight:300;font-size:14.6315px;font-family:Rubik;-inkscape-font-specification:'Rubik Light';stroke-width:0.342926"
       d="m 134.04723,152.92992 q -0.14632,0 -0.2341,-0.0878 -0.0878,-0.0878 -0.0878,-0.23411 v -9.58363 q 0,-0.16095 0.0878,-0.24873 0.0878,-0.0878 0.2341,-0.0878 h 3.40914 q 1.53631,0 2.44346,0.73157 0.92178,0.73158 0.92178,2.22399 0,1.17052 -0.58526,1.87283 -0.58526,0.70231 -1.62409,0.95105 l 2.35567,4.00903 q 0.0439,0.0878 0.0439,0.16095 0,0.11705 -0.0878,0.20484 -0.0878,0.0878 -0.20484,0.0878 h -0.17557 q -0.23411,0 -0.35116,-0.11706 -0.11705,-0.13168 -0.20484,-0.27799 l -2.32641,-3.93588 h -3.01409 v 4.00903 q 0,0.14632 -0.0878,0.23411 -0.0878,0.0878 -0.24873,0.0878 z m 0.59989,-5.20882 h 2.73609 q 1.27294,0 1.88747,-0.5121 0.62915,-0.52673 0.62915,-1.56557 0,-1.03884 -0.62915,-1.55094 -0.61453,-0.52673 -1.88747,-0.52673 h -2.73609 z m 10.98824,5.35513 q -1.41925,0 -2.25325,-0.92178 -0.834,-0.93642 -0.95105,-2.44346 -0.0146,-0.21948 -0.0146,-0.58526 0,-0.36579 0.0146,-0.58526 0.0732,-0.99495 0.46821,-1.75578 0.39505,-0.76084 1.08273,-1.18516 0.70231,-0.42431 1.65336,-0.42431 1.02421,0 1.74115,0.45358 0.71694,0.45357 1.09736,1.3022 0.39505,0.84863 0.39505,2.01915 v 0.21947 q 0,0.14632 -0.10242,0.2341 -0.0878,0.0878 -0.2341,0.0878 h -5.20882 q 0,0 0,0.0585 0,0.0585 0,0.0878 0.0293,0.65842 0.30727,1.25831 0.27799,0.58526 0.7901,0.96568 0.5121,0.36578 1.21441,0.36578 0.62916,0 1.03884,-0.19021 0.42431,-0.1902 0.67305,-0.40968 0.24873,-0.2341 0.32189,-0.35115 0.13168,-0.19021 0.20484,-0.21948 0.0732,-0.0439 0.2341,-0.0439 h 0.23411 q 0.13168,0 0.21947,0.0878 0.10242,0.0732 0.0878,0.20484 -0.0146,0.20484 -0.2341,0.5121 -0.20484,0.29263 -0.5999,0.58526 -0.38041,0.29263 -0.93641,0.48284 -0.556,0.19021 -1.24368,0.19021 z m -2.31178,-4.40408 h 4.65282 v -0.0585 q 0,-0.73157 -0.278,-1.31683 -0.278,-0.58526 -0.80473,-0.92179 -0.52673,-0.35115 -1.25831,-0.35115 -0.73157,0 -1.25831,0.35115 -0.5121,0.33653 -0.7901,0.92179 -0.26337,0.58526 -0.26337,1.31683 z m 7.79859,4.25777 q -0.14632,0 -0.23411,-0.0878 -0.0878,-0.0878 -0.0878,-0.23411 v -6.96459 q 0,-0.14632 0.0878,-0.2341 0.0878,-0.0878 0.23411,-0.0878 h 0.24873 q 0.14632,0 0.23411,0.0878 0.0878,0.0878 0.0878,0.2341 v 0.68768 q 0.39505,-0.5121 0.95104,-0.834 0.57063,-0.32189 1.50705,-0.32189 0.99494,0 1.65336,0.43895 0.67305,0.42431 0.99494,1.17052 0.33652,0.73157 0.33652,1.66799 v 4.15534 q 0,0.14632 -0.0878,0.23411 -0.0878,0.0878 -0.23411,0.0878 h -0.24873 q -0.14632,0 -0.23411,-0.0878 -0.0878,-0.0878 -0.0878,-0.23411 v -4.08219 q 0,-1.17052 -0.57063,-1.82893 -0.57062,-0.67305 -1.66799,-0.67305 -1.03883,0 -1.68262,0.67305 -0.62915,0.65841 -0.62915,1.82893 v 4.08219 q 0,0.14632 -0.0878,0.23411 -0.0878,0.0878 -0.23411,0.0878 z m 10.72489,0.14631 q -0.76084,0 -1.31683,-0.20484 -0.54137,-0.20484 -0.89253,-0.48284 -0.35115,-0.29263 -0.52673,-0.57063 -0.16095,-0.278 -0.17558,-0.42431 -0.0146,-0.16095 0.10242,-0.23411 0.11705,-0.0878 0.21947,-0.0878 h 0.21948 q 0.0878,0 0.14631,0.0293 0.0732,0.0293 0.17558,0.16095 0.19021,0.24873 0.43895,0.48283 0.24873,0.21948 0.62915,0.35116 0.39505,0.13168 0.98031,0.13168 0.87789,0 1.44852,-0.33652 0.57063,-0.33652 0.57063,-0.99494 0,-0.40968 -0.23411,-0.65842 -0.21947,-0.24874 -0.76083,-0.43894 -0.54137,-0.19021 -1.46315,-0.39506 -0.92179,-0.21947 -1.41926,-0.52673 -0.48284,-0.30726 -0.65842,-0.70231 -0.17558,-0.40968 -0.17558,-0.87789 0,-0.5121 0.29263,-0.99494 0.29263,-0.49747 0.86326,-0.80474 0.58526,-0.32189 1.46315,-0.32189 0.71695,0 1.21442,0.19021 0.5121,0.19021 0.83399,0.46821 0.3219,0.26337 0.46821,0.52673 0.16095,0.26337 0.17558,0.42432 0.0146,0.14631 -0.0878,0.2341 -0.10242,0.0878 -0.2341,0.0878 h -0.21948 q -0.11705,0 -0.19021,-0.0439 -0.0731,-0.0585 -0.13168,-0.14631 -0.14631,-0.2341 -0.35116,-0.43895 -0.20484,-0.20484 -0.55599,-0.32189 -0.33653,-0.13168 -0.92179,-0.13168 -0.87789,0 -1.3022,0.36579 -0.42431,0.35115 -0.42431,0.90715 0,0.32189 0.17557,0.57063 0.17558,0.2341 0.65842,0.43894 0.48284,0.19021 1.40463,0.40968 0.93641,0.20485 1.47778,0.51211 0.54136,0.29263 0.76083,0.70231 0.23411,0.40968 0.23411,0.96568 0,0.58526 -0.33653,1.08273 -0.32189,0.49747 -0.98031,0.80473 -0.64378,0.29263 -1.59483,0.29263 z"
       id="text3"
       aria-label="Rens" /></g></svg>
