<?xml version="1.0" encoding="UTF-8" standalone="no"?>
<!-- Created with Inkscape (http://www.inkscape.org/) -->

<svg
   width="121.58886mm"
   height="35.665298mm"
   viewBox="0 0 121.58886 35.665298"
   version="1.1"
   id="svg1"
   xml:space="preserve"
   xmlns="http://www.w3.org/2000/svg"
   xmlns:svg="http://www.w3.org/2000/svg"
   role="img"
   aria-labelledby="logo-title logo-desc">
  <title id="logo-title">SOSI Rens</title>
  <desc id="logo-desc">Monochrome logo for SOSI Rens — scalable SVG, suitable for branding and favicons.</desc>
  <defs
     id="defs1" />
  <g
     id="layer1"
     transform="translate(-50.460137,-130.86073)"><g
       style="opacity:1;fill:none;fill-rule:nonzero;stroke:none;stroke-width:0;stroke-linecap:butt;stroke-linejoin:miter;stroke-miterlimit:10;stroke-dasharray:none"
       transform="matrix(0.51046582,0,0,0.51046582,126.10738,125.72246)"
       id="g2">
	<path
   d="m 89.968,11.869 c 0.168,-0.812 -0.354,-1.604 -1.166,-1.772 -0.813,-0.165 -1.604,0.354 -1.771,1.166 l -1.143,5.546 c -6.851,-4.345 -14.352,-4.262 -21.173,0.271 -5.896,3.92 -12.393,3.919 -18.289,0 -6.969,-4.629 -14.642,-4.63 -21.61,0 -5.896,3.918 -12.392,3.918 -18.289,0 C 5.774,16.58 5.001,16.126 4.229,15.734 4.105,15.671 3.979,15.617 3.855,15.557 L 2.97,11.263 C 2.803,10.451 2.009,9.93 1.198,10.097 0.386,10.264 -0.135,11.057 0.032,11.869 L 11.75,68.737 c 0.144,0.697 0.757,1.197 1.469,1.197 h 63.564 c 0.712,0 1.325,-0.5 1.469,-1.197 L 88.387,19.551 c 0,-10e-4 0.001,-0.003 0.001,-0.004 z M 75.559,66.934 H 14.441 L 4.656,19.447 c 0.07,0.045 0.141,0.086 0.211,0.132 6.969,4.63 14.643,4.629 21.61,0 5.898,-3.919 12.393,-3.918 18.289,0 3.484,2.314 7.145,3.472 10.805,3.472 3.66,0 7.321,-1.158 10.805,-3.472 5.897,-3.918 12.393,-3.918 18.29,0 l 0.573,0.381 z"
   style="opacity:1;fill:currentColor;fill-rule:nonzero;stroke:none;stroke-width:1;stroke-linecap:butt;stroke-linejoin:miter;stroke-miterlimit:10;stroke-dasharray:none"
   stroke-linecap="round"
   id="path1" />
	<path
   d="M 76.782,76.934 H 13.218 c -0.829,0 -1.5,0.672 -1.5,1.5 0,0.828 0.671,1.5 1.5,1.5 h 63.564 c 0.828,0 1.5,-0.672 1.5,-1.5 0,-0.828 -0.672,-1.5 -1.5,-1.5 z"
   style="opacity:1;fill:currentColor;fill-rule:nonzero;stroke:none;stroke-width:1;stroke-linecap:butt;stroke-linejoin:miter;stroke-miterlimit:10;stroke-dasharray:none"
   stroke-linecap="round"
   id="path2" />
</g><text
       xml:space="preserve"
       style="font-size:36.1716px;text-align:start;writing-mode:lr-tb;direction:ltr;text-anchor:start;fill:currentColor;stroke-width:0.188393"
       x="48.723907"
       y="160.32736"
       id="text2"><tspan
         id="tspan2"
             style="font-style:normal;font-variant:normal;font-weight:300;font-stretch:normal;font-family:Rubik, ui-sans-serif, system-ui, -apple-system, 'Segoe UI', Roboto, Arial, 'Noto Sans', sans-serif;-inkscape-font-specification:'Rubik Light';stroke-width:0.188393"
         x="48.723907"
         y="160.32736">SOSI</tspan></text><text
       xml:space="preserve"
          style="font-style:normal;font-variant:normal;font-weight:normal;font-stretch:normal;font-size:14.6315px;font-family:Rubik, ui-sans-serif, system-ui, -apple-system, 'Segoe UI', Roboto, Arial, 'Noto Sans', sans-serif;-inkscape-font-specification:Rubik;text-align:start;writing-mode:lr-tb;direction:ltr;text-anchor:start;fill:currentColor;stroke-width:0.342926"
       x="132.34998"
       y="152.92992"
       id="text3"><tspan
         id="tspan1"
             style="font-style:normal;font-variant:normal;font-weight:300;font-stretch:normal;font-size:14.6315px;font-family:Rubik, ui-sans-serif, system-ui, -apple-system, 'Segoe UI', Roboto, Arial, 'Noto Sans', sans-serif;-inkscape-font-specification:'Rubik Light';stroke-width:0.342926"
         x="132.34998"
         y="152.92992">Rens</tspan></text></g></svg>
