<svg xml:space="preserve" width="459.548" height="134.798" viewBox="0 0 121.589 35.665"><g style="opacity:1;fill:none;fill-rule:nonzero;stroke:none;stroke-width:0;stroke-linecap:butt;stroke-linejoin:miter;stroke-miterlimit:10;stroke-dasharray:none"><path d="M89.968 11.869a1.499 1.499 0 1 0-2.937-.606l-1.143 5.546c-6.851-4.345-14.352-4.262-21.173.271-5.896 3.92-12.393 3.919-18.289 0-6.969-4.629-14.642-4.63-21.61 0-5.896 3.918-12.392 3.918-18.289 0-.753-.5-1.526-.954-2.298-1.346-.124-.063-.25-.117-.374-.177l-.885-4.294a1.5 1.5 0 1 0-2.938.606L11.75 68.737a1.5 1.5 0 0 0 1.469 1.197h63.564a1.5 1.5 0 0 0 1.469-1.197l10.135-49.186.001-.004zM75.559 66.934H14.441L4.656 19.447c.07.045.141.086.211.132 6.969 4.63 14.643 4.629 21.61 0 5.898-3.919 12.393-3.918 18.289 0 3.484 2.314 7.145 3.472 10.805 3.472s7.321-1.158 10.805-3.472c5.897-3.918 12.393-3.918 18.29 0l.573.381zm1.223 10H13.218a1.5 1.5 0 1 0 0 3h63.564a1.5 1.5 0 0 0 0-3" style="opacity:1;fill:#000;fill-rule:nonzero;stroke:none;stroke-width:1;stroke-linecap:butt;stroke-linejoin:miter;stroke-miterlimit:10;stroke-dasharray:none" transform="translate(75.647 -5.138)scale(.51047)"/></g><path d="M59.72 160.69q-2.93 0-4.992-.941-2.025-.94-3.11-2.424-1.086-1.483-1.158-3.147 0-.29.217-.506t.543-.217h.723q.362 0 .543.217.217.217.253.506.145 1.013.904 2.026.76.976 2.243 1.664 1.483.65 3.834.65 3.545 0 5.173-1.265 1.627-1.302 1.627-3.473 0-1.447-.868-2.315-.832-.904-2.568-1.591-1.736-.724-4.45-1.592-2.567-.832-4.231-1.7-1.664-.904-2.46-2.17-.76-1.266-.76-3.256 0-1.844.977-3.291.977-1.483 2.822-2.351 1.88-.868 4.557-.868 2.134 0 3.726.578 1.591.579 2.64 1.556 1.05.94 1.592 2.061.543 1.086.579 2.135 0 .253-.181.506-.181.217-.579.217h-.723q-.181 0-.47-.145-.254-.144-.326-.578-.217-1.809-1.917-2.967-1.664-1.193-4.34-1.193t-4.378 1.049-1.7 3.291q0 1.447.76 2.388.76.904 2.387 1.627 1.628.688 4.196 1.52 2.713.868 4.486 1.736t2.64 2.134q.868 1.23.868 3.22 0 2.206-1.121 3.761-1.085 1.52-3.11 2.351-2.027.796-4.848.796m22.86 0q-3.002 0-5.1-1.05-2.098-1.085-3.219-3.292-1.121-2.242-1.23-5.642-.036-1.628-.036-3.039 0-1.41.036-3.038.109-3.364 1.302-5.57 1.194-2.243 3.292-3.328 2.134-1.085 4.956-1.085 2.82 0 4.919 1.085 2.134 1.085 3.328 3.327 1.23 2.207 1.302 5.57.072 1.629.072 3.04 0 1.41-.072 3.038-.073 3.4-1.23 5.642-1.121 2.207-3.22 3.292-2.097 1.05-5.1 1.05m0-2.171q3.111 0 5.1-1.881 2.026-1.881 2.171-6.113.072-1.628.072-2.858t-.072-2.857q-.072-2.822-1.049-4.594-.94-1.772-2.568-2.568-1.592-.832-3.653-.832-2.026 0-3.654.832-1.591.796-2.568 2.568-.94 1.772-1.049 4.594-.036 1.627-.036 2.857t.036 2.858q.145 4.232 2.17 6.113 2.026 1.88 5.1 1.88m22.97 2.17q-2.93 0-4.992-.94-2.026-.94-3.11-2.424-1.086-1.483-1.158-3.147 0-.29.217-.506t.542-.217h.724q.361 0 .542.217.217.217.253.506.145 1.013.905 2.026.76.976 2.242 1.664 1.483.65 3.835.65 3.544 0 5.172-1.265 1.628-1.302 1.628-3.473 0-1.447-.868-2.315-.832-.904-2.569-1.591-1.736-.724-4.449-1.592-2.568-.832-4.232-1.7-1.664-.904-2.46-2.17-.759-1.266-.759-3.256 0-1.844.977-3.291.976-1.483 2.821-2.351 1.88-.868 4.558-.868 2.134 0 3.725.578 1.592.579 2.64 1.556 1.05.94 1.592 2.061.543 1.086.58 2.135 0 .253-.182.506-.18.217-.578.217h-.724q-.18 0-.47-.145-.253-.144-.326-.578-.217-1.809-1.917-2.967-1.664-1.193-4.34-1.193t-4.377 1.049-1.7 3.291q0 1.447.76 2.388.759.904 2.387 1.627 1.627.688 4.196 1.52 2.713.868 4.485 1.736t2.64 2.134q.869 1.23.869 3.22 0 2.206-1.122 3.761-1.085 1.52-3.11 2.351-2.026.796-4.847.796m15.083-.362q-.362 0-.579-.217t-.217-.578v-23.729q0-.362.217-.579t.579-.217h.687q.362 0 .58.217.216.217.216.579v23.729q0 .361-.217.578t-.579.217z" aria-label="SOSI" style="font-weight:300;font-size:36.1716px;font-family:Rubik;-inkscape-font-specification:&quot;Rubik Light&quot;;stroke-width:.188393" transform="translate(-50.46 -130.86)"/><path d="M134.047 152.93q-.146 0-.234-.088t-.088-.234v-9.584q0-.16.088-.248t.234-.088h3.41q1.536 0 2.443.731.922.732.922 2.224 0 1.17-.586 1.873-.585.703-1.624.951l2.356 4.01q.044.087.044.16 0 .117-.088.205t-.205.088h-.175q-.234 0-.352-.117-.117-.132-.204-.278l-2.327-3.936h-3.014v4.009q0 .146-.088.234-.087.088-.248.088zm.6-5.209h2.736q1.273 0 1.888-.512.629-.527.629-1.566 0-1.038-.63-1.55-.614-.527-1.887-.527h-2.736zm10.988 5.355q-1.419 0-2.253-.922-.834-.936-.95-2.443-.016-.22-.016-.585 0-.366.015-.586.073-.994.468-1.755t1.083-1.185q.702-.425 1.653-.425 1.025 0 1.742.454.716.453 1.097 1.302.395.849.395 2.02v.219q0 .146-.103.234-.087.088-.234.088h-5.208v.146q.029.658.307 1.258.278.585.79.966.512.366 1.214.366.63 0 1.04-.19.424-.19.672-.41.249-.234.322-.351.132-.19.205-.22.073-.044.234-.044h.234q.132 0 .22.088.102.073.087.205-.014.205-.234.512-.204.293-.6.585-.38.293-.936.483t-1.244.19m-2.311-4.404h4.652v-.058q0-.732-.278-1.317t-.804-.922q-.527-.351-1.259-.351t-1.258.351q-.512.337-.79.922-.263.585-.263 1.317zm7.798 4.258q-.146 0-.234-.088t-.088-.234v-6.965q0-.146.088-.234.088-.087.234-.087h.249q.146 0 .234.087.088.088.088.234v.688q.395-.512.95-.834.571-.322 1.508-.322.995 0 1.653.44.673.423.995 1.17.337.731.337 1.668v4.155q0 .146-.088.234t-.234.088h-.249q-.146 0-.234-.088t-.088-.234v-4.082q0-1.17-.57-1.83-.571-.672-1.668-.672-1.04 0-1.683.673-.63.658-.63 1.829v4.082q0 .146-.087.234-.088.088-.234.088zm10.725.146q-.76 0-1.317-.205-.541-.204-.892-.482-.351-.293-.527-.571-.161-.278-.176-.424-.014-.161.103-.234.117-.088.22-.088h.219q.088 0 .146.029.073.03.176.161.19.249.439.483.248.22.629.35.395.133.98.133.878 0 1.449-.337.57-.336.57-.995 0-.41-.234-.658-.22-.249-.76-.44-.542-.19-1.464-.394-.922-.22-1.42-.527-.482-.307-.658-.702-.175-.41-.175-.878 0-.512.292-.995.293-.498.864-.805.585-.322 1.463-.322.717 0 1.214.19.512.19.834.469.322.263.469.526.16.264.175.425.015.146-.088.234-.102.088-.234.088h-.22q-.116 0-.19-.044-.073-.059-.131-.147-.146-.234-.351-.439-.205-.204-.556-.321-.337-.132-.922-.132-.878 0-1.302.366-.425.35-.425.907 0 .322.176.57.176.235.658.44.483.19 1.405.41.936.204 1.478.511.541.293.76.702.235.41.235.966 0 .585-.337 1.083-.322.497-.98.805-.644.292-1.595.292" aria-label="Rens" style="font-weight:300;font-size:14.6315px;font-family:Rubik;-inkscape-font-specification:&quot;Rubik Light&quot;;stroke-width:.342926" transform="translate(-50.46 -130.86)"/></svg>