<svg xml:space="preserve" width="459.548" height="134.798" aria-labelledby="logo-title logo-desc" viewBox="0 0 121.589 35.665"><title id="logo-title">SOSI Rens</title><desc>Monochrome logo for SOSI Rens — scalable SVG, suitable for branding and favicons.</desc><g style="opacity:1;fill:none;fill-rule:nonzero;stroke:none;stroke-width:0;stroke-linecap:butt;stroke-linejoin:miter;stroke-miterlimit:10;stroke-dasharray:none"><path d="M89.968 11.869a1.499 1.499 0 1 0-2.937-.606l-1.143 5.546c-6.851-4.345-14.352-4.262-21.173.271-5.896 3.92-12.393 3.919-18.289 0-6.969-4.629-14.642-4.63-21.61 0-5.896 3.918-12.392 3.918-18.289 0-.753-.5-1.526-.954-2.298-1.346-.124-.063-.25-.117-.374-.177l-.885-4.294a1.5 1.5 0 1 0-2.938.606L11.75 68.737a1.5 1.5 0 0 0 1.469 1.197h63.564a1.5 1.5 0 0 0 1.469-1.197l10.135-49.186.001-.004zM75.559 66.934H14.441L4.656 19.447c.07.045.141.086.211.132 6.969 4.63 14.643 4.629 21.61 0 5.898-3.919 12.393-3.918 18.289 0 3.484 2.314 7.145 3.472 10.805 3.472s7.321-1.158 10.805-3.472c5.897-3.918 12.393-3.918 18.29 0l.573.381zm1.223 10H13.218a1.5 1.5 0 1 0 0 3h63.564a1.5 1.5 0 0 0 0-3" style="opacity:1;fill:currentColor;fill-rule:nonzero;stroke:none;stroke-width:1;stroke-linecap:butt;stroke-linejoin:miter;stroke-miterlimit:10;stroke-dasharray:none" transform="translate(75.647 -5.138)scale(.51047)"/></g><text xml:space="preserve" x="48.724" y="160.327" style="font-size:36.1716px;text-align:start;writing-mode:lr-tb;direction:ltr;text-anchor:start;fill:currentColor;stroke-width:.188393" transform="translate(-50.46 -130.86)"><tspan x="48.724" y="160.327" style="font-style:normal;font-variant:normal;font-weight:300;font-stretch:normal;font-family:Rubik;-inkscape-font-specification:&quot;Rubik Light&quot;;stroke-width:.188393">SOSI</tspan></text><text xml:space="preserve" x="132.35" y="152.93" style="font-style:normal;font-variant:normal;font-weight:400;font-stretch:normal;font-size:14.6315px;font-family:Rubik;-inkscape-font-specification:Rubik;text-align:start;writing-mode:lr-tb;direction:ltr;text-anchor:start;fill:currentColor;stroke-width:.342926" transform="translate(-50.46 -130.86)"><tspan x="132.35" y="152.93" style="font-style:normal;font-variant:normal;font-weight:300;font-stretch:normal;font-size:14.6315px;font-family:Rubik;-inkscape-font-specification:&quot;Rubik Light&quot;;stroke-width:.342926">Rens</tspan></text></svg>